Coordinates
version=1
nRows=30
nColumns=38
inDegrees=no

Units are S.I. units (second, meters, Newtons, ...)
If the header above contains a line with 'inDegrees', this indicates whether rotational values are in degrees (yes) or radians (no).

endheader
time	pelvis_tilt	pelvis_list	pelvis_rotation	pelvis_tx	pelvis_ty	pelvis_tz	hip_flexion_r	hip_adduction_r	hip_rotation_r	knee_angle_r	ankle_angle_r	subtalar_angle_r	mtp_angle_r	hip_flexion_l	hip_adduction_l	hip_rotation_l	knee_angle_l	ankle_angle_l	subtalar_angle_l	mtp_angle_l	lumbar_extension	lumbar_bending	lumbar_rotation	arm_flex_r	arm_add_r	arm_rot_r	elbow_flex_r	pro_sup_r	wrist_flex_r	wrist_dev_r	arm_flex_l	arm_add_l	arm_rot_l	elbow_flex_l	pro_sup_l	wrist_flex_l	wrist_dev_l
2.7075	0.0935654	0.0465528	-3.12647	-0.279438	0.966758	0.0497185	0.58125	0.0355131	-0.121686	0.709469	0.119417	0	0	-0.0322952	0.0110184	0.0373677	0.480689	0.108947	0	0	-0.183615	0.102592	-0.103331	-0.574721	-0.496032	0.252665	1.89474	1.40794	0	0	0.486996	-0.452758	0.749008	2.01339	1.49891	0	0
2.7175	0.106005	0.0459807	-3.13237	-0.281588	0.971453	0.0486606	0.579796	0.0427272	-0.112062	0.623184	0.12757	0	0	-0.0467155	0.0117108	0.035799	0.458335	0.0497147	0	0	-0.163051	0.106127	-0.110689	-0.601912	-0.493112	0.237646	1.90252	1.41135	0	0	0.481669	-0.458256	0.754923	2.02027	1.49672	0	0
2.72749	0.118138	0.0439026	-3.13809	-0.283737	0.975425	0.0475418	0.577732	0.0487254	-0.101003	0.541271	0.135368	0	0	-0.0579136	0.0137689	0.0328746	0.441951	-0.00767538	0	0	-0.142886	0.107998	-0.118044	-0.625356	-0.490199	0.225029	1.90966	1.41443	0	0	0.475223	-0.463857	0.761015	2.0257	1.49501	0	0
2.73748	0.129665	0.0405403	-3.14365	-0.285832	0.978592	0.0463618	0.575509	0.0534962	-0.0890602	0.465798	0.142757	0	0	-0.0659304	0.0169014	0.0285232	0.432243	-0.0618618	0	0	-0.123616	0.108439	-0.125351	-0.644624	-0.487572	0.215065	1.9163	1.41718	0	0	0.467782	-0.469535	0.76713	2.02966	1.49387	0	0
2.74747	0.140251	0.0362029	-3.14916	-0.28782	0.980897	0.0451187	0.57349	0.0571286	-0.0769491	0.398706	0.149563	0	0	-0.0709104	0.0207051	0.022608	0.429778	-0.11173	0	0	-0.105796	0.107778	-0.132493	-0.659278	-0.485515	0.208013	1.92261	1.41955	0	0	0.459455	-0.475238	0.7731	2.03209	1.49333	0	0
2.75746	0.149541	0.0312616	-3.15473	-0.289648	0.982301	0.04381	0.571922	0.0598072	-0.0654708	0.341693	0.155502	0	0	-0.073091	0.0246911	0.0149391	0.434962	-0.156475	0	0	-0.0900176	0.10641	-0.13927	-0.66892	-0.484281	0.20409	1.92875	1.42142	0	0	0.450358	-0.480873	0.778769	2.03293	1.49335	0	0
2.76745	0.157167	0.0261212	-3.16052	-0.291267	0.982788	0.0424334	0.570901	0.0617997	-0.0554051	0.296101	0.160197	0	0	-0.0727977	0.0283191	0.00529957	0.448018	-0.195628	0	0	-0.0768829	0.104764	-0.145401	-0.673239	-0.484052	0.203425	1.9349	1.42266	0	0	0.440634	-0.486306	0.784026	2.03203	1.49385	0	0
2.77744	0.162763	0.021193	-3.16667	-0.292639	0.982361	0.0409883	0.57035	0.0634301	-0.0474072	0.262828	0.163206	0	0	-0.0704377	0.0310345	-0.00651267	0.468976	-0.229014	0	0	-0.0669826	0.103264	-0.150529	-0.672042	-0.484911	0.206021	1.9412	1.42313	0	0	0.430473	-0.491365	0.788835	2.02923	1.49467	0	0
2.78743	0.16598	0.0168715	-3.17333	-0.29373	0.981046	0.0394764	0.570031	0.065046	-0.0419312	0.242283	0.164085	0	0	-0.0664727	0.0323035	-0.0206404	0.497681	-0.256662	0	0	-0.0608584	0.102303	-0.154239	-0.66527	-0.486844	0.211746	1.94782	1.42268	0	0	0.420111	-0.495849	0.793246	2.02428	1.49559	0	0
2.79742	0.166524	0.013516	-3.18061	-0.294518	0.978883	0.0379027	0.569595	0.0669828	-0.0391829	0.234382	0.16249	0	0	-0.0613683	0.0316479	-0.0371305	0.533813	-0.278689	0	0	-0.0589516	0.10222	-0.156087	-0.652996	-0.489749	0.22035	1.9549	1.4212	0	0	0.409801	-0.499531	0.79738	2.01691	1.49633	0	0
2.80741	0.164191	0.0114329	-3.18862	-0.29499	0.975932	0.0362771	0.568656	0.0695346	-0.0391113	0.238608	0.15832	0	0	-0.0555383	0.0286775	-0.0559046	0.576912	-0.295206	0	0	-0.0615577	0.103285	-0.155644	-0.635392	-0.493472	0.2315	1.96258	1.41869	0	0	0.399782	-0.502184	0.801398	2.00682	1.49656	0	0
2.8174	0.158888	0.0108543	-3.19741	-0.295138	0.972262	0.0346147	0.566858	0.0729228	-0.0414448	0.254113	0.151854	0	0	-0.0493001	0.0231296	-0.0767243	0.626392	-0.306289	0	0	-0.0688031	0.105681	-0.152553	-0.612689	-0.497842	0.244824	1.97099	1.41517	0	0	0.390244	-0.503602	0.805463	1.99373	1.49592	0	0
2.82739	0.15064	0.0119163	-3.20698	-0.294958	0.967955	0.0329367	0.563942	0.0772689	-0.0457416	0.279826	0.143861	0	0	-0.0428417	0.0149108	-0.0991599	0.681546	-0.31202	0	0	-0.0806333	0.109487	-0.146573	-0.585135	-0.502689	0.259965	1.98025	1.41075	0	0	0.381298	-0.503629	0.809701	1.97743	1.49401	0	0
2.83738	0.139611	0.014634	-3.21725	-0.294448	0.963099	0.0312693	0.559789	0.0825708	-0.0514062	0.314557	0.135649	0	0	-0.0361878	0.00413777	-0.122576	0.741563	-0.312579	0	0	-0.0968021	0.11466	-0.137636	-0.552941	-0.507868	0.276634	1.99042	1.40556	0	0	0.372936	-0.502176	0.814144	1.9578	1.49052	0	0
2.84738	0.126103	0.0188864	-3.22809	-0.293609	0.95779	0.0296436	0.554435	0.0886939	-0.0577044	0.35707	0.128968	0	0	-0.0291694	-0.00883986	-0.14615	0.80555	-0.308292	0	0	-0.116862	0.121028	-0.125871	-0.516257	-0.513258	0.294659	2.00152	1.39974	0	0	0.365	-0.499237	0.818703	1.93485	1.4852	0	0
2.85737	0.110567	0.0244049	-3.23928	-0.292448	0.952129	0.0280937	0.548044	0.0953607	-0.0638462	0.406077	0.125762	0	0	-0.02141	-0.0234376	-0.168921	0.87255	-0.299641	0	0	-0.140157	0.128291	-0.111614	-0.475168	-0.518747	0.313985	2.01348	1.39339	0	0	0.357188	-0.494895	0.823164	1.90873	1.47797	0	0
2.86736	0.0935893	0.030782	-3.25053	-0.290978	0.946219	0.0266557	0.540844	0.102152	-0.0691379	0.460187	0.127827	0	0	-0.0123326	-0.0388705	-0.189866	0.941559	-0.287226	0	0	-0.165826	0.136041	-0.095382	-0.429729	-0.524215	0.334656	2.02613	1.38658	0	0	0.349069	-0.48931	0.827215	1.87973	1.46888	0	0
2.87735	0.0758899	0.0375001	-3.2615	-0.289223	0.940164	0.0253647	0.533086	0.108524	-0.0731492	0.517826	0.136398	0	0	-0.00118648	-0.0542243	-0.207999	1.01154	-0.271707	0	0	-0.19282	0.143797	-0.0778325	-0.380022	-0.529507	0.356758	2.03921	1.37944	0	0	0.340126	-0.482713	0.830486	1.8483	1.45807	0	0
2.88734	0.0583015	0.0439653	-3.27181	-0.287216	0.934062	0.0242506	0.525027	0.113838	-0.0758157	0.57721	0.151851	0	0	0.012909	-0.0685401	-0.222464	1.08142	-0.253743	0	0	-0.219916	0.151042	-0.0597216	-0.326203	-0.534422	0.380367	2.05239	1.37213	0	0	0.32979	-0.475403	0.832592	1.81501	1.44579	0	0
2.89733	0.0417331	0.0495495	-3.28102	-0.285004	0.928003	0.0233328	0.516935	0.117413	-0.0774039	0.63645	0.17372	0	0	0.0308925	-0.0809035	-0.232593	1.15015	-0.233939	0	0	-0.245773	0.157259	-0.0418788	-0.268541	-0.538707	0.40552	2.06529	1.36496	0	0	0.31748	-0.467757	0.833159	1.78061	1.43235	0	0
2.90732	0.0270703	0.0536698	-3.28869	-0.282643	0.92207	0.0226145	0.509064	0.11863	-0.0783773	0.693742	0.201025	0	0	0.0536193	-0.090552	-0.237941	1.21668	-0.212815	0	0	-0.269052	0.161982	-0.0251602	-0.207412	-0.542064	0.432194	2.07753	1.35837	0	0	0.302638	-0.460227	0.831832	1.74597	1.41816	0	0
2.91731	0.0150175	0.0559017	-3.29443	-0.280196	0.916349	0.022081	0.501549	0.11708	-0.0792275	0.747527	0.232556	0	0	0.0816406	-0.0969909	-0.238336	1.27998	-0.190811	0	0	-0.288631	0.164886	-0.0103351	-0.143297	-0.544192	0.46027	2.08873	1.35283	0	0	0.284806	-0.453298	0.828299	1.71206	1.40368	0	0
2.9273	0.0059618	0.0560692	-3.29796	-0.277729	0.910939	0.0217021	0.494277	0.112674	-0.0803316	0.796524	0.267007	0	0	0.115009	-0.100061	-0.233931	1.33903	-0.168322	0	0	-0.303803	0.165845	0.00208308	-0.0767959	-0.544845	0.489483	2.09861	1.34876	0	0	0.263709	-0.447421	0.822342	1.67988	1.38947	0	0
2.93729	-7.95131e-05	0.0542546	-3.29921	-0.275301	0.905953	0.0214395	0.486837	0.105657	-0.0818856	0.83973	0.303053	0	0	0.15321	-0.0999235	-0.225219	1.39284	-0.14571	0	0	-0.314377	0.164929	0.0119543	-0.00863175	-0.543888	0.51939	2.10706	1.34638	0	0	0.239319	-0.442942	0.813889	1.65034	1.37609	0	0
2.94728	-0.00342106	0.0507441	-3.29829	-0.272964	0.901518	0.0212528	0.478564	0.0965214	-0.0839119	0.876384	0.339414	0	0	0.195228	-0.0969978	-0.212992	1.44043	-0.123292	0	0	-0.320652	0.162352	0.0195084	0.0603843	-0.541338	0.549422	2.11413	1.34568	0	0	0.211843	-0.440086	0.803024	1.62427	1.36408	0	0
2.95727	-0.0046178	0.0459545	-3.29552	-0.270756	0.897763	0.0211027	0.468621	0.0859124	-0.0863023	0.905911	0.374874	0	0	0.239689	-0.0918864	-0.198259	1.48091	-0.101314	0	0	-0.323313	0.15841	0.0252708	0.129421	-0.537349	0.578959	2.11995	1.34644	0	0	0.181682	-0.438947	0.789961	1.60231	1.3539	0	0
2.96727	-0.00432042	0.0403512	-3.29136	-0.268703	0.894815	0.0209534	0.456155	0.0745262	-0.0888569	0.927889	0.408304	0	0	0.285071	-0.0852984	-0.18215	1.51347	-0.0799549	0	0	-0.32325	0.153419	0.0299263	0.197721	-0.53219	0.607463	2.12472	1.34829	0	0	0.149336	-0.439516	0.774985	1.58489	1.34592	0	0
2.97726	-0.00314071	0.0343705	-3.28635	-0.26682	0.892782	0.0207734	0.440452	0.0630317	-0.0913012	0.942039	0.438673	0	0	0.329912	-0.0779656	-0.165817	1.53745	-0.0593322	0	0	-0.321368	0.147671	0.0341887	0.264644	-0.526193	0.634543	2.12856	1.3508	0	0	0.115321	-0.441697	0.758391	1.57221	1.34031	0	0
2.98725	-0.00158595	0.0283696	-3.28104	-0.265114	0.891753	0.0205354	0.421013	0.0520193	-0.0932913	0.948235	0.465041	0	0	0.372914	-0.0705762	-0.150354	1.55231	-0.0395344	0	0	-0.318468	0.141389	0.0387294	0.329631	-0.519696	0.659945	2.13152	1.35348	0	0	0.080135	-0.445324	0.740466	1.56423	1.33706	0	0
2.99724	-3.17639e-05	0.0226036	-3.27597	-0.263586	0.891784	0.0202158	0.397588	0.0419595	-0.0944502	0.946519	0.486566	0	0	0.413003	-0.0637212	-0.136726	1.55767	-0.0206451	0	0	-0.315174	0.134733	0.0441315	0.392172	-0.513013	0.683521	2.13362	1.3559	0	0	0.0442556	-0.450184	0.721502	1.56065	1.336	0	0
